<svg width="26" height="27" viewBox="0 0 26 27" fill="none" xmlns="http://www.w3.org/2000/svg">
<g filter="url(#filter0_d_10005_1034)">
<mask id="path-1-outside-1_10005_1034" maskUnits="userSpaceOnUse" x="2" y="1" width="22" height="23" fill="black">
<rect fill="white" x="2" y="1" width="22" height="23"/>
<path fill-rule="evenodd" clip-rule="evenodd" d="M10.5455 23C10.5455 23 7.2166 20.4519 6.04546 18.5C4.87433 16.5481 2.65508 14.0615 3.04546 12.5C3.43584 10.9385 4.87433 10.4464 6.04546 11.6175C7.2166 12.7886 8.00551 15.3261 8.78627 14.9357C9.56703 14.5453 8.98146 10.8368 8.2007 8.68967C7.41994 6.54259 6.60594 2 8.2007 2C9.79546 2 9.79546 3.5 10.5455 5.75C11.2955 8 10.7099 11 11.2955 11C11.881 11 12.1045 10.4759 12.1045 9.5C12.1045 9.23478 12.1565 9.01062 12.2621 8.82479C12.545 8.32682 13.2127 8.1041 14.2955 8.1041C15.7823 8.1041 15.0455 11 15.7955 11C16.5455 11 16.5455 11.0615 16.5455 9.5C16.5455 7.93849 17.2409 8.1041 18.7409 8.1041C20.2409 8.1041 19.5147 11 20.2955 11C21.0762 11 20.2955 9.5 21.0455 9.5C21.7955 9.5 22.5455 9.73659 22.5455 13.25C22.5455 16.7634 22.9666 16.9385 21.7955 18.5C20.6243 20.0615 19.5455 21.5 19.5455 21.5C19.5455 21.5 19.5455 23 18.7409 23C17.9364 23 17.5214 21.5 16.5455 21.5C15.5695 21.5 15.0455 23 15.0455 23H10.5455ZM19.5454 20V14H18.0454V20H19.5454ZM15.0454 18.5C15.0454 18.9063 15.3933 20 15.7954 20C16.2096 20 16.5454 18.9131 16.5454 18.5V15.5C16.5454 15.0937 16.1975 14 15.7954 14C15.3812 14 15.0454 15.0869 15.0454 15.5V18.5ZM12.0454 18.5C12.0454 18.9063 12.3933 20 12.7954 20C13.2096 20 13.5454 18.9131 13.5454 18.5V15.5C13.5454 15.0937 13.1975 14 12.7954 14C12.3812 14 12.0454 15.0869 12.0454 15.5V18.5Z"/>
</mask>
<path fill-rule="evenodd" clip-rule="evenodd" d="M10.5455 23C10.5455 23 7.2166 20.4519 6.04546 18.5C4.87433 16.5481 2.65508 14.0615 3.04546 12.5C3.43584 10.9385 4.87433 10.4464 6.04546 11.6175C7.2166 12.7886 8.00551 15.3261 8.78627 14.9357C9.56703 14.5453 8.98146 10.8368 8.2007 8.68967C7.41994 6.54259 6.60594 2 8.2007 2C9.79546 2 9.79546 3.5 10.5455 5.75C11.2955 8 10.7099 11 11.2955 11C11.881 11 12.1045 10.4759 12.1045 9.5C12.1045 9.23478 12.1565 9.01062 12.2621 8.82479C12.545 8.32682 13.2127 8.1041 14.2955 8.1041C15.7823 8.1041 15.0455 11 15.7955 11C16.5455 11 16.5455 11.0615 16.5455 9.5C16.5455 7.93849 17.2409 8.1041 18.7409 8.1041C20.2409 8.1041 19.5147 11 20.2955 11C21.0762 11 20.2955 9.5 21.0455 9.5C21.7955 9.5 22.5455 9.73659 22.5455 13.25C22.5455 16.7634 22.9666 16.9385 21.7955 18.5C20.6243 20.0615 19.5455 21.5 19.5455 21.5C19.5455 21.5 19.5455 23 18.7409 23C17.9364 23 17.5214 21.5 16.5455 21.5C15.5695 21.5 15.0455 23 15.0455 23H10.5455ZM19.5454 20V14H18.0454V20H19.5454ZM15.0454 18.5C15.0454 18.9063 15.3933 20 15.7954 20C16.2096 20 16.5454 18.9131 16.5454 18.5V15.5C16.5454 15.0937 16.1975 14 15.7954 14C15.3812 14 15.0454 15.0869 15.0454 15.5V18.5ZM12.0454 18.5C12.0454 18.9063 12.3933 20 12.7954 20C13.2096 20 13.5454 18.9131 13.5454 18.5V15.5C13.5454 15.0937 13.1975 14 12.7954 14C12.3812 14 12.0454 15.0869 12.0454 15.5V18.5Z" fill="white"/>
<path d="M10.5455 23L9.93764 23.7941L10.2067 24H10.5455V23ZM6.04546 18.5L5.18797 19.0145H5.18797L6.04546 18.5ZM3.04546 12.5L4.01561 12.7425L3.04546 12.5ZM6.04546 11.6175L5.33836 12.3246V12.3246L6.04546 11.6175ZM8.78627 14.9357L8.33906 14.0413H8.33905L8.78627 14.9357ZM8.2007 8.68967L9.14049 8.34793L8.2007 8.68967ZM8.2007 2V1H8.2007L8.2007 2ZM11.2955 11L11.2955 12L11.2955 11ZM12.1045 9.5H11.1045H12.1045ZM12.2621 8.82479L11.3926 8.3308L12.2621 8.82479ZM14.2955 8.1041V7.1041V8.1041ZM15.7955 11V10V11ZM16.5455 9.5L15.5455 9.5L16.5455 9.5ZM18.7409 8.1041V7.1041V8.1041ZM20.2955 11V12V11ZM21.0455 9.5V8.5V9.5ZM22.5455 13.25H21.5455H22.5455ZM19.5455 21.5L18.7455 20.9L18.5455 21.1667V21.5H19.5455ZM18.7409 23V22V23ZM16.5455 21.5V20.5V21.5ZM15.0455 23V24H15.7554L15.9895 23.3298L15.0455 23ZM19.5454 20V21H20.5454V20H19.5454ZM19.5454 14H20.5454V13H19.5454V14ZM18.0454 14V13H17.0454V14H18.0454ZM18.0454 20H17.0454V21H18.0454V20ZM10.5455 23C11.1533 22.2059 11.1534 22.206 11.1534 22.206C11.1534 22.206 11.1534 22.2061 11.1534 22.2061C11.1535 22.2061 11.1534 22.206 11.1533 22.2059C11.1531 22.2058 11.1527 22.2055 11.1521 22.205C11.1509 22.2041 11.149 22.2026 11.1462 22.2005C11.1408 22.1963 11.1322 22.1897 11.1208 22.1808C11.0979 22.1631 11.0635 22.1363 11.0189 22.1011C10.9295 22.0307 10.7993 21.9271 10.639 21.7963C10.3178 21.5344 9.87798 21.1657 9.40372 20.7388C8.42774 19.8601 7.40444 18.8213 6.90296 17.9855L5.18797 19.0145C5.85762 20.1306 7.08432 21.3418 8.06556 22.2252C8.5699 22.6792 9.03554 23.0695 9.3751 23.3464C9.54512 23.485 9.68417 23.5957 9.78143 23.6723C9.83007 23.7106 9.8683 23.7404 9.89477 23.761C9.90801 23.7712 9.91832 23.7792 9.92551 23.7848C9.92911 23.7875 9.93194 23.7897 9.93396 23.7913C9.93498 23.792 9.93579 23.7927 9.93641 23.7931C9.93671 23.7934 9.93697 23.7936 9.93717 23.7937C9.93728 23.7938 9.93739 23.7939 9.93744 23.7939C9.93755 23.794 9.93764 23.7941 10.5455 23ZM6.90296 17.9855C6.59105 17.4657 6.2141 16.9178 5.85114 16.3912C5.4807 15.8537 5.12161 15.3337 4.8117 14.8297C4.49989 14.3227 4.26431 13.8736 4.12726 13.4874C3.98681 13.0916 3.98589 12.8614 4.01561 12.7425L2.07532 12.2575C1.90985 12.9194 2.03994 13.5856 2.2424 14.1562C2.44826 14.7363 2.7675 15.3237 3.10809 15.8775C3.45059 16.4344 3.8415 16.9996 4.20435 17.5261C4.57467 18.0634 4.91431 18.5584 5.18797 19.0145L6.90296 17.9855ZM4.01561 12.7425C4.14887 12.2095 4.40866 12.0326 4.54852 11.9892C4.66908 11.9519 4.95032 11.9366 5.33836 12.3246L6.75257 10.9104C5.96947 10.1273 4.9459 9.77246 3.95684 10.0788C2.98708 10.3791 2.33244 11.229 2.07532 12.2575L4.01561 12.7425ZM5.33836 12.3246C5.81068 12.7969 6.20908 13.5544 6.70582 14.3784C6.92188 14.7369 7.18695 15.1556 7.48756 15.4551C7.64073 15.6077 7.86537 15.7939 8.16366 15.8977C8.50064 16.015 8.87947 16.0072 9.23348 15.8302L8.33905 14.0413C8.49787 13.9619 8.68127 13.9602 8.82108 14.0088C8.92221 14.044 8.94798 14.0869 8.89909 14.0382C8.79559 13.9351 8.64385 13.7195 8.4187 13.3459C8.033 12.7061 7.45139 11.6092 6.75257 10.9104L5.33836 12.3246ZM9.23348 15.8302C9.64167 15.6261 9.84461 15.2676 9.94577 15.0147C10.0517 14.7499 10.1031 14.4612 10.1292 14.1945C10.1819 13.6561 10.1491 13.0085 10.0722 12.3546C9.91749 11.0395 9.55929 9.49962 9.14049 8.34793L7.26091 9.03141C7.62287 10.0268 7.94783 11.4147 8.0859 12.5883C8.15537 13.1788 8.1714 13.6657 8.13871 13.9996C8.12212 14.169 8.09728 14.2508 8.08882 14.2719C8.0756 14.305 8.12606 14.1478 8.33906 14.0413L9.23348 15.8302ZM9.14049 8.34793C8.77816 7.35151 8.40164 5.76971 8.30727 4.4674C8.25908 3.80252 8.29293 3.31165 8.37713 3.0267C8.41794 2.88858 8.44873 2.87578 8.41671 2.90769C8.3596 2.96461 8.26807 3 8.2007 3L8.2007 1C7.73464 1 7.3197 1.17735 7.0049 1.49108C6.7152 1.77979 6.55405 2.13866 6.45911 2.45995C6.2718 3.09384 6.25893 3.87281 6.3125 4.61196C6.42162 6.11771 6.84248 7.88075 7.26091 9.03141L9.14049 8.34793ZM8.2007 3C8.4336 3 8.5095 3.051 8.53702 3.07149C8.58149 3.10462 8.66592 3.1908 8.7768 3.43905C8.8902 3.69297 8.99304 4.02552 9.12532 4.48919C9.25198 4.93317 9.40042 5.47715 9.59678 6.06623L11.4941 5.43377C11.3155 4.89785 11.1827 4.41058 11.0486 3.9405C10.9201 3.49011 10.7826 3.02578 10.6029 2.62345C10.4207 2.21545 10.1593 1.78601 9.73177 1.46757C9.28731 1.1365 8.76518 1 8.2007 1V3ZM9.59678 6.06623C9.91666 7.02587 9.96142 8.18973 9.98232 9.23868C9.99195 9.7219 9.997 10.237 10.0443 10.6189C10.0669 10.8013 10.1098 11.0609 10.2244 11.2995C10.3471 11.5552 10.6738 12 11.2955 12L11.2955 10C11.7707 10 11.9876 10.3511 12.0274 10.4339C12.0589 10.4997 12.0457 10.5073 12.0291 10.3732C11.9981 10.1224 11.9928 9.74685 11.9819 9.19882C11.9617 8.18527 11.9243 6.72413 11.4941 5.43377L9.59678 6.06623ZM11.2955 12C11.5954 12 11.9097 11.9311 12.1978 11.7515C12.4845 11.5729 12.6804 11.3251 12.8104 11.0704C13.0509 10.5988 13.1045 10.0258 13.1045 9.5H11.1045C11.1045 9.70911 11.0923 9.8686 11.0732 9.98667C11.0537 10.1076 11.0314 10.1563 11.0288 10.1616C11.0286 10.162 11.0358 10.1476 11.0547 10.1259C11.0743 10.1035 11.1026 10.0775 11.14 10.0542C11.2215 10.0034 11.2883 10 11.2955 10L11.2955 12ZM13.1045 9.5C13.1045 9.36518 13.1304 9.32075 13.1315 9.31878L11.3926 8.3308C11.1826 8.70049 11.1045 9.10437 11.1045 9.5H13.1045ZM13.1315 9.31878C13.1323 9.3174 13.1353 9.31094 13.153 9.29749C13.1735 9.28186 13.2195 9.25289 13.3086 9.22178C13.4971 9.15593 13.8091 9.1041 14.2955 9.1041L14.2955 7.1041C13.1941 7.1041 11.9741 7.30729 11.3926 8.3308L13.1315 9.31878ZM14.2955 9.1041C14.3104 9.1041 14.2703 9.10497 14.2166 9.07058C14.1697 9.04052 14.1624 9.01525 14.1787 9.04444C14.2291 9.13453 14.2835 9.32691 14.3304 9.68268C14.3645 9.94173 14.4061 10.439 14.477 10.762C14.5149 10.9344 14.5867 11.2011 14.7531 11.4428C14.9527 11.7326 15.3057 12 15.7955 12L15.7955 10C16.0977 10 16.3097 10.1769 16.4003 10.3084C16.4576 10.3917 16.4523 10.4322 16.4305 10.333C16.3822 10.113 16.3745 9.88634 16.3132 9.42142C16.2647 9.05321 16.1777 8.52162 15.9246 8.06873C15.7892 7.82643 15.5896 7.57491 15.2954 7.38649C14.9945 7.19373 14.6522 7.1041 14.2955 7.1041V9.1041ZM15.7955 12C15.9142 12 16.1852 12.0084 16.403 11.97C16.5384 11.9461 16.7228 11.8957 16.908 11.7751C17.1039 11.6476 17.2443 11.4784 17.3384 11.2979C17.4954 10.9969 17.5206 10.6596 17.5322 10.4479C17.5458 10.2 17.5455 9.87791 17.5455 9.5L15.5455 9.5C15.5455 9.90284 15.5451 10.1587 15.5352 10.3384C15.5305 10.4255 15.5247 10.4675 15.522 10.4823C15.5188 10.4995 15.5251 10.4497 15.565 10.3733C15.6122 10.2827 15.694 10.179 15.8167 10.0991C15.9287 10.0262 16.0252 10.0057 16.0551 10.0005C16.0803 9.996 16.0809 9.99869 16.024 9.99977C15.9647 10.0009 15.9066 10 15.7955 10V12ZM17.5455 9.5C17.5455 9.16263 17.5865 9.04067 17.5948 9.02153C17.5952 9.02059 17.5922 9.02759 17.5842 9.03963C17.5759 9.05196 17.5642 9.06687 17.5487 9.08226C17.5151 9.11554 17.4836 9.13179 17.4723 9.13663C17.4655 9.13951 17.4826 9.13123 17.5409 9.12215C17.5995 9.11302 17.6811 9.10584 17.7972 9.10211C18.0553 9.09381 18.3168 9.1041 18.7409 9.1041V7.1041C18.415 7.1041 18.0271 7.09369 17.733 7.10314C17.4325 7.11279 17.0489 7.14323 16.6891 7.29634C16.2737 7.47313 15.9513 7.78511 15.7604 8.22472C15.5914 8.6137 15.5455 9.05661 15.5455 9.5L17.5455 9.5ZM18.7409 9.1041C18.7592 9.1041 18.7227 9.10583 18.6719 9.07373C18.6276 9.0457 18.6214 9.02257 18.6385 9.05252C18.6907 9.14404 18.747 9.33685 18.798 9.69363C18.8355 9.95576 18.8826 10.4513 18.9617 10.7809C19.0039 10.9566 19.0827 11.2245 19.2583 11.4651C19.468 11.7525 19.8215 12 20.2955 12V10C20.5742 10 20.7796 10.157 20.8738 10.286C20.9338 10.3683 20.9295 10.4099 20.9065 10.3142C20.8553 10.1008 20.8439 9.87231 20.7778 9.41047C20.7253 9.04327 20.633 8.51211 20.3752 8.06065C20.2372 7.81911 20.0356 7.56974 19.7408 7.38334C19.4396 7.19287 19.0977 7.1041 18.7409 7.1041V9.1041ZM20.2955 12C20.5572 12 20.855 11.9346 21.12 11.7363C21.3802 11.5417 21.5138 11.2901 21.5823 11.0906C21.6983 10.753 21.6833 10.3729 21.6819 10.2397C21.6794 9.99014 21.6898 9.98958 21.6751 10.0359C21.6584 10.0887 21.6026 10.2285 21.4496 10.3493C21.2879 10.477 21.1241 10.5 21.0455 10.5V8.5C20.7793 8.5 20.4759 8.56987 20.2103 8.77957C19.9534 8.98239 19.8294 9.23939 19.7682 9.43285C19.6646 9.76042 19.6808 10.1349 19.682 10.2603C19.6845 10.5021 19.6715 10.497 19.6908 10.4407C19.7111 10.3818 19.7716 10.2474 19.9221 10.1348C20.0776 10.0185 20.229 10 20.2955 10V12ZM21.0455 10.5C21.1937 10.5 21.2124 10.5154 21.1947 10.5077C21.1489 10.4876 21.1584 10.4649 21.2058 10.549C21.348 10.8008 21.5455 11.5029 21.5455 13.25H23.5455C23.5455 11.4837 23.368 10.3108 22.9476 9.56596C22.7138 9.15176 22.3952 8.85027 21.9978 8.67604C21.6286 8.51413 21.2723 8.5 21.0455 8.5V10.5ZM21.5455 13.25C21.5455 14.1493 21.5725 14.8355 21.5938 15.3725C21.6157 15.9261 21.6283 16.2687 21.6115 16.5465C21.5964 16.7952 21.5587 16.9558 21.4882 17.1196C21.4094 17.3027 21.2712 17.5324 20.9955 17.9L22.5955 19.1C22.9053 18.6868 23.1536 18.3091 23.3253 17.9104C23.5051 17.4924 23.5818 17.0969 23.6078 16.6675C23.6321 16.2671 23.6126 15.8096 23.5922 15.2934C23.5711 14.7607 23.5455 14.1075 23.5455 13.25H21.5455ZM20.9955 17.9C20.4099 18.6808 19.8474 19.4308 19.4313 19.9856C19.2232 20.263 19.0518 20.4916 18.9323 20.6508C18.8726 20.7305 18.8259 20.7928 18.7941 20.8351C18.7782 20.8563 18.7661 20.8725 18.7579 20.8835C18.7538 20.8889 18.7507 20.8931 18.7486 20.8958C18.7476 20.8972 18.7468 20.8983 18.7462 20.899C18.746 20.8993 18.7458 20.8996 18.7457 20.8997C18.7456 20.8998 18.7455 20.8999 18.7455 20.8999C18.7455 20.9 18.7455 20.9 18.7455 20.9C18.7455 20.9 18.7455 20.9 19.5455 21.5C20.3455 22.1 20.3455 22.1 20.3455 22.1C20.3455 22.1 20.3455 22.1 20.3455 22.0999C20.3455 22.0999 20.3456 22.0998 20.3457 22.0997C20.3458 22.0996 20.346 22.0993 20.3463 22.099C20.3468 22.0983 20.3476 22.0972 20.3486 22.0958C20.3507 22.0931 20.3538 22.0889 20.3579 22.0835C20.3661 22.0725 20.3782 22.0563 20.3941 22.0351C20.4259 21.9928 20.4726 21.9305 20.5323 21.8508C20.6518 21.6916 20.8232 21.463 21.0313 21.1856C21.4474 20.6308 22.0099 19.8808 22.5955 19.1L20.9955 17.9ZM19.5455 21.5C18.5455 21.5 18.5455 21.4997 18.5455 21.4995C18.5455 21.4994 18.5455 21.4992 18.5455 21.499C18.5455 21.4987 18.5455 21.4984 18.5455 21.4982C18.5455 21.4976 18.5455 21.4972 18.5455 21.4968C18.5455 21.4961 18.5455 21.4957 18.5455 21.4957C18.5455 21.4955 18.5455 21.4967 18.5454 21.499C18.5453 21.5036 18.5451 21.5129 18.5446 21.5262C18.5436 21.5529 18.5414 21.5944 18.5369 21.6453C18.5273 21.7519 18.5093 21.878 18.479 21.991C18.4453 22.1169 18.4157 22.1528 18.4269 22.1388C18.4379 22.1251 18.4722 22.0871 18.5363 22.053C18.6054 22.0162 18.679 22 18.7409 22V24C19.3053 24 19.7237 23.7175 19.9852 23.3925C20.2227 23.0972 20.344 22.7581 20.4108 22.509C20.481 22.247 20.5133 21.9981 20.5289 21.8234C20.5369 21.7338 20.541 21.658 20.5432 21.6027C20.5442 21.575 20.5448 21.552 20.5451 21.5347C20.5453 21.5261 20.5454 21.5188 20.5454 21.513C20.5454 21.51 20.5454 21.5075 20.5455 21.5053C20.5455 21.5043 20.5455 21.5033 20.5455 21.5024C20.5455 21.5019 20.5455 21.5015 20.5455 21.5011C20.5455 21.5009 20.5455 21.5006 20.5455 21.5005C20.5455 21.5003 20.5455 21.5 19.5455 21.5ZM18.7409 22C18.8729 22 18.9187 22.067 18.8392 22.0001C18.7467 21.9224 18.65 21.8098 18.4619 21.5936C18.3035 21.4116 18.0708 21.1458 17.7846 20.9325C17.4812 20.7064 17.0673 20.5 16.5455 20.5L16.5455 22.5C16.5116 22.5 16.5156 22.4811 16.5896 22.5362C16.6808 22.6042 16.7851 22.7134 16.9531 22.9064C17.0912 23.0652 17.3101 23.3276 17.5522 23.5311C17.8073 23.7455 18.2067 24 18.7409 24V22ZM16.5455 20.5C15.5231 20.5 14.887 21.2661 14.6005 21.6907C14.4346 21.9367 14.3129 22.1757 14.2333 22.3494C14.193 22.4376 14.1619 22.5124 14.1401 22.5675C14.1292 22.5951 14.1205 22.618 14.114 22.6353C14.1108 22.6439 14.1082 22.6512 14.1061 22.6571C14.105 22.66 14.1041 22.6626 14.1033 22.6648C14.1029 22.6659 14.1026 22.6669 14.1023 22.6678C14.1021 22.6682 14.102 22.6686 14.1018 22.669C14.1017 22.6692 14.1016 22.6695 14.1016 22.6696C14.1015 22.6699 14.1014 22.6702 15.0455 23C15.9895 23.3298 15.9894 23.3301 15.9893 23.3303C15.9893 23.3304 15.9892 23.3307 15.9892 23.3308C15.989 23.3311 15.9889 23.3314 15.9888 23.3317C15.9887 23.3322 15.9885 23.3327 15.9884 23.3331C15.9881 23.3338 15.988 23.3342 15.9879 23.3343C15.9879 23.3345 15.9883 23.3334 15.9891 23.331C15.9909 23.3264 15.9944 23.317 15.9997 23.3036C16.0104 23.2766 16.0279 23.2343 16.0518 23.1819C16.1011 23.0743 16.1714 22.9383 16.2585 22.8093C16.478 22.4839 16.5919 22.5 16.5455 22.5L16.5455 20.5ZM15.0455 22H10.5455V24H15.0455V22ZM20.5454 20V14H18.5454V20H20.5454ZM19.5454 13H18.0454V15H19.5454V13ZM17.0454 14V20H19.0454V14H17.0454ZM18.0454 21H19.5454V19H18.0454V21ZM14.0454 18.5C14.0454 18.8848 14.1818 19.3978 14.3487 19.7922C14.4363 19.999 14.5614 20.2445 14.7349 20.4563C14.88 20.6336 15.2336 21 15.7954 21V19C15.98 19 16.1151 19.0641 16.1866 19.1098C16.2221 19.1325 16.2463 19.1533 16.2601 19.1661C16.274 19.1792 16.2811 19.1878 16.2823 19.1892C16.2835 19.1907 16.2727 19.1773 16.2532 19.1427C16.2345 19.1095 16.2131 19.0658 16.1905 19.0126C16.1447 18.9043 16.1049 18.7812 16.0776 18.6691C16.0472 18.5443 16.0454 18.4875 16.0454 18.5H14.0454ZM15.7954 21C16.3498 21 16.7038 20.6472 16.8575 20.4615C17.0346 20.2477 17.1605 19.9998 17.2478 19.7919C17.4154 19.3926 17.5454 18.882 17.5454 18.5H15.5454C15.5454 18.4937 15.5427 18.5545 15.5135 18.6779C15.4869 18.79 15.4482 18.9118 15.4037 19.0179C15.3817 19.0701 15.361 19.1124 15.3431 19.1441C15.3245 19.1772 15.3147 19.1889 15.3172 19.1859C15.3176 19.1854 15.3483 19.1472 15.4164 19.1046C15.4893 19.059 15.6202 19 15.7954 19V21ZM17.5454 18.5V15.5H15.5454V18.5H17.5454ZM17.5454 15.5C17.5454 15.1152 17.409 14.6022 17.2421 14.2078C17.1546 14.001 17.0294 13.7555 16.8559 13.5437C16.7108 13.3664 16.3572 13 15.7954 13V15C15.6109 15 15.4757 14.9359 15.4043 14.8902C15.3687 14.8675 15.3445 14.8467 15.3308 14.8339C15.3168 14.8208 15.3097 14.8122 15.3085 14.8108C15.3073 14.8093 15.3182 14.8227 15.3376 14.8573C15.3563 14.8905 15.3777 14.9342 15.4003 14.9874C15.4461 15.0957 15.4859 15.2188 15.5132 15.3309C15.5436 15.4557 15.5454 15.5125 15.5454 15.5H17.5454ZM15.7954 13C15.241 13 14.8871 13.3528 14.7333 13.5385C14.5562 13.7523 14.4303 14.0002 14.343 14.2081C14.1754 14.6074 14.0454 15.118 14.0454 15.5H16.0454C16.0454 15.5063 16.0481 15.4455 16.0773 15.3221C16.1039 15.21 16.1426 15.0882 16.1872 14.9821C16.2091 14.9299 16.2298 14.8876 16.2477 14.8559C16.2663 14.8228 16.2761 14.8111 16.2737 14.8141C16.2733 14.8146 16.2425 14.8528 16.1744 14.8954C16.1015 14.941 15.9706 15 15.7954 15V13ZM14.0454 15.5V18.5H16.0454V15.5H14.0454ZM11.0454 18.5C11.0454 18.8848 11.1818 19.3978 11.3487 19.7922C11.4363 19.999 11.5614 20.2445 11.7349 20.4563C11.88 20.6336 12.2336 21 12.7954 21V19C12.98 19 13.1151 19.0641 13.1866 19.1098C13.2221 19.1325 13.2463 19.1533 13.2601 19.1661C13.274 19.1792 13.2811 19.1878 13.2823 19.1892C13.2835 19.1907 13.2727 19.1773 13.2532 19.1427C13.2345 19.1095 13.2131 19.0658 13.1905 19.0126C13.1447 18.9043 13.1049 18.7812 13.0776 18.6691C13.0472 18.5443 13.0454 18.4875 13.0454 18.5H11.0454ZM12.7954 21C13.3498 21 13.7038 20.6472 13.8575 20.4615C14.0346 20.2477 14.1605 19.9998 14.2478 19.7919C14.4154 19.3926 14.5454 18.882 14.5454 18.5H12.5454C12.5454 18.4937 12.5427 18.5545 12.5135 18.6779C12.4869 18.79 12.4482 18.9118 12.4037 19.0179C12.3817 19.0701 12.361 19.1124 12.3431 19.1441C12.3245 19.1772 12.3147 19.1889 12.3172 19.1859C12.3176 19.1854 12.3483 19.1472 12.4164 19.1046C12.4893 19.059 12.6202 19 12.7954 19V21ZM14.5454 18.5V15.5H12.5454V18.5H14.5454ZM14.5454 15.5C14.5454 15.1152 14.409 14.6022 14.2421 14.2078C14.1546 14.001 14.0294 13.7555 13.8559 13.5437C13.7108 13.3664 13.3572 13 12.7954 13V15C12.6109 15 12.4757 14.9359 12.4043 14.8902C12.3687 14.8675 12.3445 14.8467 12.3308 14.8339C12.3168 14.8208 12.3097 14.8122 12.3085 14.8108C12.3073 14.8093 12.3182 14.8227 12.3376 14.8573C12.3563 14.8905 12.3777 14.9342 12.4003 14.9874C12.4461 15.0957 12.4859 15.2188 12.5132 15.3309C12.5436 15.4557 12.5454 15.5125 12.5454 15.5H14.5454ZM12.7954 13C12.241 13 11.8871 13.3528 11.7333 13.5385C11.5562 13.7523 11.4303 14.0002 11.343 14.2081C11.1754 14.6074 11.0454 15.118 11.0454 15.5H13.0454C13.0454 15.5063 13.0481 15.4455 13.0773 15.3221C13.1039 15.21 13.1426 15.0882 13.1872 14.9821C13.2091 14.9299 13.2298 14.8876 13.2477 14.8559C13.2663 14.8228 13.2761 14.8111 13.2737 14.8141C13.2733 14.8146 13.2425 14.8528 13.1744 14.8954C13.1015 14.941 12.9706 15 12.7954 15V13ZM11.0454 15.5V18.5H13.0454V15.5H11.0454Z" fill="#363B3E" mask="url(#path-1-outside-1_10005_1034)"/>
</g>
<defs>
<filter id="filter0_d_10005_1034" x="-5.34058e-05" y="0" width="25.6191" height="27" filterUnits="userSpaceOnUse" color-interpolation-filters="sRGB">
<feFlood flood-opacity="0" result="BackgroundImageFix"/>
<feColorMatrix in="SourceAlpha" type="matrix" values="0 0 0 0 0 0 0 0 0 0 0 0 0 0 0 0 0 0 127 0" result="hardAlpha"/>
<feOffset dy="1"/>
<feGaussianBlur stdDeviation="1"/>
<feColorMatrix type="matrix" values="0 0 0 0 0.211765 0 0 0 0 0.231373 0 0 0 0 0.243137 0 0 0 1 0"/>
<feBlend mode="normal" in2="BackgroundImageFix" result="effect1_dropShadow_10005_1034"/>
<feBlend mode="normal" in="SourceGraphic" in2="effect1_dropShadow_10005_1034" result="shape"/>
</filter>
</defs>
</svg>
