<svg width="24" height="24" viewBox="0 0 24 24" fill="none" xmlns="http://www.w3.org/2000/svg">
<path d="M4.25889 16.5936C3.1407 14.7086 2.7491 12.4802 3.15762 10.327C3.56615 8.17366 4.74669 6.24356 6.47758 4.89909C8.20846 3.55462 10.3706 2.88826 12.558 3.02514C14.7455 3.16202 16.8077 4.09273 18.3575 5.6425C19.9072 7.19226 20.838 9.25448 20.9749 11.4419C21.1117 13.6293 20.4454 15.7915 19.1009 17.5224C17.7565 19.2533 15.8264 20.4338 13.6731 20.8424C11.5198 21.2509 9.29143 20.8593 7.40643 19.7411L7.40645 19.741L4.29802 20.6292C4.16942 20.6659 4.03332 20.6676 3.90385 20.634C3.77437 20.6005 3.65622 20.5329 3.56165 20.4384C3.46707 20.3438 3.3995 20.2256 3.36595 20.0961C3.3324 19.9667 3.33409 19.8306 3.37083 19.702L4.25896 16.5935L4.25889 16.5936Z" stroke="white" stroke-linecap="round" stroke-linejoin="round"/>
<path d="M7.49995 10.0649L7.49995 10.064C7.50214 9.38288 7.77441 8.7304 8.25705 8.24972C8.73964 7.76908 9.39315 7.49947 10.0743 7.5M7.49995 10.0649L10.9514 8.00919C10.863 7.85451 10.7353 7.72594 10.5812 7.63652C10.4273 7.54717 10.2524 7.50008 10.0744 7.5C10.0744 7.5 10.0743 7.5 10.0743 7.5M7.49995 10.0649C7.49874 10.9103 7.66437 11.7477 7.98734 12.529C8.3103 13.3102 8.78426 14.0201 9.38205 14.6179C9.97984 15.2157 10.6897 15.6896 11.471 16.0126C12.2523 16.3356 13.0896 16.5012 13.935 16.5L13.9343 16L7.49995 10.0649ZM10.0743 7.5C10.0742 7.5 10.0741 7.5 10.074 7.5L10.074 8L10.0743 7.5ZM12.2119 12.8897L12.4691 13.3185L12.6746 12.8626C12.5969 12.8277 12.5211 12.7896 12.4471 12.7486L12.2119 12.8897ZM11.1102 11.788L11.2514 11.5528C11.2104 11.4789 11.1723 11.403 11.1373 11.3254L10.6815 11.5308L11.1102 11.788Z" stroke="white" stroke-linecap="round" stroke-linejoin="round"/>
</svg>
